<svg version="1.1" xmlns="http://www.w3.org/2000/svg" viewBox="0 0 2536.528970999525 1278.9804627113695" width="2536.528970999525" height="1278.9804627113695">
  <!-- svg-source:excalidraw -->
  
  <defs>
    <style class="style-fonts">
      @font-face {
        font-family: "Virgil";
        src: url("https://excalidraw.com/Virgil.woff2");
      }
      @font-face {
        font-family: "Cascadia";
        src: url("https://excalidraw.com/Cascadia.woff2");
      }
    </style>
  </defs>
  <rect x="0" y="0" width="2536.528970999525" height="1278.9804627113695" fill="#ffffff"></rect><g stroke-linecap="round" transform="translate(607.9377851454535 87.96203749484448) rotate(0 959.2955929270357 590.5092126082625)"><path d="M32 0 M32 0 C645.77 -3.66, 1261.27 -3.55, 1886.59 0 M32 0 C557.95 4.93, 1084.71 5.36, 1886.59 0 M1886.59 0 C1908.54 -1.38, 1916.8 12.09, 1918.59 32 M1886.59 0 C1906.99 0.37, 1920.78 9.16, 1918.59 32 M1918.59 32 C1921.63 418.87, 1921.46 805.92, 1918.59 1149.02 M1918.59 32 C1917.44 444.85, 1917.8 857.03, 1918.59 1149.02 M1918.59 1149.02 C1918.04 1169.05, 1906.25 1182.07, 1886.59 1181.02 M1918.59 1149.02 C1918.93 1172.07, 1907.39 1179.72, 1886.59 1181.02 M1886.59 1181.02 C1296.39 1184.6, 706.9 1185.37, 32 1181.02 M1886.59 1181.02 C1259.38 1181.37, 632.16 1181.65, 32 1181.02 M32 1181.02 C12 1179.31, -0.18 1170.5, 0 1149.02 M32 1181.02 C10.23 1181.78, -2.23 1170.16, 0 1149.02 M0 1149.02 C0.54 896.54, 1.7 645.84, 0 32 M0 1149.02 C-4.31 902.4, -3.59 655.81, 0 32 M0 32 C1.07 11.47, 12.06 1.23, 32 0 M0 32 C-2.02 10.68, 12.23 2.3, 32 0" stroke="#000000" stroke-width="1" fill="none"></path></g><g transform="translate(658.7136042040274 10) rotate(0 189 20.5)"><text x="0" y="33" font-family="Helvetica, Segoe UI Emoji" font-size="36px" fill="#000000" text-anchor="start" style="white-space: pre;" direction="ltr">Mahjong Game Service</text></g><g stroke-linecap="round" transform="translate(10 119.68117137423303) rotate(0 153.18337736213493 121.12258237954586)"><path d="M32 0 M32 0 C102.8 -2.12, 173.69 0.34, 274.37 0 M32 0 C117.72 -0.25, 203.44 0.13, 274.37 0 M274.37 0 C295.07 1.23, 304.52 12.27, 306.37 32 M274.37 0 C294.76 2.17, 307.94 10.17, 306.37 32 M306.37 32 C303.21 99.18, 304.32 165.67, 306.37 210.25 M306.37 32 C308.25 69.64, 307.14 107.89, 306.37 210.25 M306.37 210.25 C305.44 232.5, 293.89 243.18, 274.37 242.25 M306.37 210.25 C305.15 230.11, 297.95 241.52, 274.37 242.25 M274.37 242.25 C204.79 242.19, 138.83 241.07, 32 242.25 M274.37 242.25 C207.83 240.52, 141.27 240.67, 32 242.25 M32 242.25 C10.42 240.89, 1.26 231.29, 0 210.25 M32 242.25 C9.46 242.66, -1.78 230.39, 0 210.25 M0 210.25 C1.44 147.49, -0.39 84.44, 0 32 M0 210.25 C-0.94 151.48, -0.7 90.61, 0 32 M0 32 C-0.36 12.14, 11.04 -0.76, 32 0 M0 32 C1.65 9.41, 9.23 -0.2, 32 0" stroke="#000000" stroke-width="1" fill="none"></path></g><g transform="translate(133.29859485346424 221.26523709201376) rotate(0 24 20.5)"><text x="0" y="33" font-family="Helvetica, Segoe UI Emoji" font-size="36px" fill="#000000" text-anchor="start" style="white-space: pre;" direction="ltr">FE</text></g><g stroke-linecap="round" transform="translate(707.5858100619917 161.57064056093134) rotate(0 468.91587412618946 506.65537034555507)"><path d="M32 0 M32 0 C260.32 1.84, 490.4 2.13, 905.83 0 M32 0 C378.81 -1.76, 724.93 -2.09, 905.83 0 M905.83 0 C926.67 -1, 938.96 12.66, 937.83 32 M905.83 0 C927 -0.26, 940.1 10.91, 937.83 32 M937.83 32 C935.41 244.96, 936.27 457.61, 937.83 981.31 M937.83 32 C938.47 321.23, 938.39 610.13, 937.83 981.31 M937.83 981.31 C938.04 1001.49, 928.76 1011.58, 905.83 1013.31 M937.83 981.31 C938.36 1001.52, 925.16 1011.07, 905.83 1013.31 M905.83 1013.31 C634.92 1011.24, 363.78 1010.97, 32 1013.31 M905.83 1013.31 C665.3 1015.8, 424.1 1015.7, 32 1013.31 M32 1013.31 C9.01 1011.88, -1.51 1003.33, 0 981.31 M32 1013.31 C12.54 1012.11, 0.06 1001.14, 0 981.31 M0 981.31 C1.33 748.88, 1.84 517.01, 0 32 M0 981.31 C-1.7 775.92, -1.39 570.71, 0 32 M0 32 C1.75 11.28, 11.61 -1.13, 32 0 M0 32 C0.4 9.29, 11.57 -0.66, 32 0" stroke="#000000" stroke-width="1" fill="none"></path></g><g stroke-linecap="round" transform="translate(1715.2902858561886 154.11772872110475) rotate(0 361.65770340568076 504.11723779276974)"><path d="M32 0 M32 0 C253.87 -2.01, 475.76 -1.73, 691.32 0 M32 0 C246.52 -0.75, 460.74 -1, 691.32 0 M691.32 0 C712.72 0.79, 724.14 11.27, 723.32 32 M691.32 0 C712.39 0.96, 724.39 8.44, 723.32 32 M723.32 32 C719.75 252.14, 720.28 473.49, 723.32 976.23 M723.32 32 C727.17 249.56, 727.08 466.47, 723.32 976.23 M723.32 976.23 C724.27 998.99, 714.08 1007.38, 691.32 1008.23 M723.32 976.23 C725.59 999.67, 710.7 1007.71, 691.32 1008.23 M691.32 1008.23 C441.73 1007.76, 191.4 1007.6, 32 1008.23 M691.32 1008.23 C485.61 1007.9, 279.49 1007.48, 32 1008.23 M32 1008.23 C11.91 1007.97, 1.68 999.12, 0 976.23 M32 1008.23 C12.26 1008.18, 1.67 997.35, 0 976.23 M0 976.23 C-2.61 621.79, -1.8 266.14, 0 32 M0 976.23 C-2.95 714.21, -3.04 452.93, 0 32 M0 32 C-1.24 12.57, 11.44 -1.89, 32 0 M0 32 C-1.02 8.41, 10.65 0.8, 32 0" stroke="#000000" stroke-width="1" fill="none"></path></g><g transform="translate(1779.4056477715167 198.28887234226738) rotate(0 56 20.5)"><text x="0" y="33" font-family="Helvetica, Segoe UI Emoji" font-size="36px" fill="#000000" text-anchor="start" style="white-space: pre;" direction="ltr">SQLite</text></g><g stroke-linecap="round" transform="translate(748.7819070341798 204.56416992458378) rotate(0 287.74056602976157 462.40100470730226)"><path d="M32 0 M32 0 C169.38 1.63, 308.04 0.2, 543.48 0 M32 0 C176.66 -0.89, 322.07 -0.78, 543.48 0 M543.48 0 C564.32 0.28, 574.6 11.21, 575.48 32 M543.48 0 C566.97 1.42, 576.81 10.4, 575.48 32 M575.48 32 C572.21 352.08, 573.1 672.5, 575.48 892.8 M575.48 32 C573.92 318.05, 573.99 604.43, 575.48 892.8 M575.48 892.8 C576.18 914.76, 565.04 924.06, 543.48 924.8 M575.48 892.8 C573.3 912.39, 563.89 926.59, 543.48 924.8 M543.48 924.8 C355.64 923.15, 168.53 924.59, 32 924.8 M543.48 924.8 C369.12 924.83, 194.93 925.08, 32 924.8 M32 924.8 C11.82 923.79, 0.92 912.63, 0 892.8 M32 924.8 C11.43 924.19, -0.02 914.93, 0 892.8 M0 892.8 C-3.7 659.18, -3.04 427.65, 0 32 M0 892.8 C0.86 622.1, 0.96 350.96, 0 32 M0 32 C-1.15 10.47, 12.4 1.19, 32 0 M0 32 C-1.09 8.55, 8.9 0.84, 32 0" stroke="#000000" stroke-width="1" fill="none"></path></g><g transform="translate(807.4980318220898 292.38767264542196) rotate(0 78 20.5)"><text x="0" y="33" font-family="Helvetica, Segoe UI Emoji" font-size="36px" fill="#000000" text-anchor="start" style="white-space: pre;" direction="ltr">Rocket-rs</text></g><g stroke-linecap="round" transform="translate(1432.1618292982585 202.1610094011943) rotate(0 74.4222214939216 458.2102877945971)"><path d="M32 0 M32 0 C59.73 0.84, 90.12 0.6, 116.84 0 M32 0 C54.95 0.41, 75.81 1.45, 116.84 0 M116.84 0 C137.53 1.72, 149.02 9.81, 148.84 32 M116.84 0 C137.33 -0.79, 150.61 12.74, 148.84 32 M148.84 32 C150.79 228.16, 150.98 422.46, 148.84 884.42 M148.84 32 C146.49 206.24, 146.63 379.73, 148.84 884.42 M148.84 884.42 C150.63 906.62, 138.42 918.09, 116.84 916.42 M148.84 884.42 C146.78 905.68, 138.04 915.52, 116.84 916.42 M116.84 916.42 C100.64 915.55, 80.87 916.19, 32 916.42 M116.84 916.42 C90.89 916.98, 64.31 917.8, 32 916.42 M32 916.42 C10.74 916.87, -0.33 905.91, 0 884.42 M32 916.42 C11.82 916.56, -1.21 907.56, 0 884.42 M0 884.42 C-1.16 589.43, -1.21 296.49, 0 32 M0 884.42 C1.84 711.35, 2.27 538.05, 0 32 M0 32 C-0.6 12.41, 9.71 -0.52, 32 0 M0 32 C-2.13 11.74, 10.09 0.74, 32 0" stroke="#000000" stroke-width="1" fill="none"></path></g><g transform="translate(1454.7297721247587 454.56993313369105) rotate(0 55.5 41)"><text x="0" y="33" font-family="Helvetica, Segoe UI Emoji" font-size="36px" fill="#000000" text-anchor="start" style="white-space: pre;" direction="ltr">Diesel </text><text x="0" y="74" font-family="Helvetica, Segoe UI Emoji" font-size="36px" fill="#000000" text-anchor="start" style="white-space: pre;" direction="ltr">ORM</text></g><g stroke-linecap="round" transform="translate(1747.725123412428 286.08396924699355) rotate(0 146.37257886869463 186.12303016636207)"><path d="M32 0 M32 0 C92.25 -1.61, 154.42 -2.07, 260.75 0 M32 0 C80.02 -0.3, 129.36 1.16, 260.75 0 M260.75 0 C281.77 0.29, 291.86 11.53, 292.75 32 M260.75 0 C281.53 -0.17, 292.23 10.73, 292.75 32 M292.75 32 C292.23 126.32, 292.29 218.41, 292.75 340.25 M292.75 32 C291.4 99.56, 292.22 167.55, 292.75 340.25 M292.75 340.25 C292.27 361.75, 281.18 370.52, 260.75 372.25 M292.75 340.25 C290.64 360.41, 280.92 374.15, 260.75 372.25 M260.75 372.25 C179.2 372.04, 98.96 372, 32 372.25 M260.75 372.25 C208.33 370.19, 157.14 369.69, 32 372.25 M32 372.25 C10.39 372.05, 1.17 361.84, 0 340.25 M32 372.25 C9.77 370.27, -0.56 362.84, 0 340.25 M0 340.25 C0.77 215.91, -0.04 94.34, 0 32 M0 340.25 C-1.71 243.53, -1.99 145.97, 0 32 M0 32 C0.39 9.84, 9.86 1.47, 32 0 M0 32 C1.07 12.38, 10.96 -0.37, 32 0" stroke="#000000" stroke-width="1" fill="none"></path></g><g transform="translate(1784.1478738062099 313.224132872985) rotate(0 27.5 11.5)"><text x="0" y="18" font-family="Helvetica, Segoe UI Emoji" font-size="20px" fill="#000000" text-anchor="start" style="white-space: pre;" direction="ltr">Room</text></g><g stroke-linecap="round"><g transform="translate(335.30575941226834 244.50505578677587) rotate(0 126.52578843189394 2.3651763743735614)"><path d="M-0.83 0.44 C41.44 1.37, 211.45 4.39, 253.88 5.11 M0.94 -0.38 C43.03 0.29, 210.95 3.07, 252.95 3.61" stroke="#000000" stroke-width="1" fill="none"></path></g><g transform="translate(335.30575941226834 244.50505578677587) rotate(0 126.52578843189394 2.3651763743735614)"><path d="M225.33 13.5 C235.75 10.28, 244.27 7.82, 252.37 3.11 M224.71 14.18 C230.59 9.93, 238.77 8.34, 251.98 4.2" stroke="#000000" stroke-width="1" fill="none"></path></g><g transform="translate(335.30575941226834 244.50505578677587) rotate(0 126.52578843189394 2.3651763743735614)"><path d="M225.64 -7.02 C235.88 -3.62, 244.3 0.54, 252.37 3.11 M225.02 -6.34 C231.03 -5.76, 239.14 -2.54, 251.98 4.2" stroke="#000000" stroke-width="1" fill="none"></path></g></g><mask></mask><g stroke-linecap="round" transform="translate(792.4930044482558 409.203891093019) rotate(0 236.84348342429075 332.2458001627539)"><path d="M32 0 M32 0 C124.44 1.58, 219.16 1.96, 441.69 0 M32 0 C114.89 -1.12, 198.52 -1.66, 441.69 0 M441.69 0 C463.44 -0.11, 474.41 8.74, 473.69 32 M441.69 0 C465.13 -1.48, 471.51 9.78, 473.69 32 M473.69 32 C472.68 179.55, 472.68 327.44, 473.69 632.49 M473.69 32 C472.88 165.3, 472.85 298.97, 473.69 632.49 M473.69 632.49 C472.32 651.86, 463.02 665.74, 441.69 664.49 M473.69 632.49 C474.07 654.11, 463.67 665.7, 441.69 664.49 M441.69 664.49 C282.9 662.63, 124.29 663.06, 32 664.49 M441.69 664.49 C294.97 665.12, 147.63 665.88, 32 664.49 M32 664.49 C11.73 663.1, 1.01 655.29, 0 632.49 M32 664.49 C9.53 663.2, 0.33 652.46, 0 632.49 M0 632.49 C-1.9 416.27, -2.9 200.46, 0 32 M0 632.49 C-1.85 477.29, -1.73 322.38, 0 32 M0 32 C-1.18 9.75, 10.74 -1.56, 32 0 M0 32 C-0.01 11.82, 10.39 0.02, 32 0" stroke="#000000" stroke-width="1" fill="none"></path></g><g transform="translate(820.928039048651 434.4369587789614) rotate(0 49.5 11.5)"><text x="0" y="18" font-family="Helvetica, Segoe UI Emoji" font-size="20px" fill="#000000" text-anchor="start" style="white-space: pre;" direction="ltr">Controllers</text></g><g transform="translate(828.8232330374813 485.70331670077087) rotate(0 77.5 16)"><text x="0" y="26" font-family="Helvetica, Segoe UI Emoji" font-size="28px" fill="#364fc7" text-anchor="start" style="white-space: pre;" direction="ltr">createRoom</text></g><g transform="translate(831.629727775698 551.5356647029445) rotate(0 60 16)"><text x="0" y="26" font-family="Helvetica, Segoe UI Emoji" font-size="28px" fill="#364fc7" text-anchor="start" style="white-space: pre;" direction="ltr">joinRoom</text></g><g stroke-linecap="round"><g transform="translate(1329.581057632457 600.8439058203525) rotate(0 46.77223431315781 1.0503771409856881)"><path d="M-1.16 1.09 C14.46 1.3, 78.77 0.51, 94.71 0.39 M0.43 0.61 C15.81 1.07, 78.22 1.57, 93.74 1.71" stroke="#000000" stroke-width="4" fill="none"></path></g><g transform="translate(1329.581057632457 600.8439058203525) rotate(0 46.77223431315781 1.0503771409856881)"><path d="M67.27 11.67 C75.6 7.73, 86.32 2.59, 93.27 1.29 M66.24 11.11 C75.25 7.29, 85.19 4.54, 93.6 1.14" stroke="#000000" stroke-width="4" fill="none"></path></g><g transform="translate(1329.581057632457 600.8439058203525) rotate(0 46.77223431315781 1.0503771409856881)"><path d="M67.46 -8.85 C75.57 -5, 86.22 -2.35, 93.27 1.29 M66.43 -9.41 C75.44 -5.93, 85.32 -1.39, 93.6 1.14" stroke="#000000" stroke-width="4" fill="none"></path></g></g><mask></mask><g stroke-linecap="round"><g transform="translate(1662.1424541975703 606.0101056255168) rotate(0 14.931076041271638 -0.419780543682009)"><path d="M0.26 -0.01 C5.33 0.04, 25.73 0.61, 30.93 0.58 M-1.07 -1.06 C3.84 -1.39, 24.82 -1.58, 30.18 -1.23" stroke="#000000" stroke-width="4" fill="none"></path></g><g transform="translate(1662.1424541975703 606.0101056255168) rotate(0 14.931076041271638 -0.419780543682009)"><path d="M15.71 4.17 C21.39 3.1, 25.31 1.62, 30.42 -2.19 M15.06 4.03 C19.9 2.79, 25.52 -0.05, 29.87 -1.67" stroke="#000000" stroke-width="4" fill="none"></path></g><g transform="translate(1662.1424541975703 606.0101056255168) rotate(0 14.931076041271638 -0.419780543682009)"><path d="M15.93 -6.28 C21.56 -3.79, 25.4 -1.72, 30.42 -2.19 M15.28 -6.41 C19.96 -4.3, 25.51 -3.76, 29.87 -1.67" stroke="#000000" stroke-width="4" fill="none"></path></g></g><mask></mask><g transform="translate(1788.724619071608 408.225557565073) rotate(0 83.5 16)"><text x="0" y="26" font-family="Helvetica, Segoe UI Emoji" font-size="28px" fill="#364fc7" text-anchor="start" style="white-space: pre;" direction="ltr">Player 1 (FK)</text></g><g transform="translate(1787.5218356123721 453.75862164752846) rotate(0 83.5 16)"><text x="0" y="26" font-family="Helvetica, Segoe UI Emoji" font-size="28px" fill="#364fc7" text-anchor="start" style="white-space: pre;" direction="ltr">Player 2 (FK)</text></g><g transform="translate(1787.2072614768795 498.61319249656833) rotate(0 83.5 16)"><text x="0" y="26" font-family="Helvetica, Segoe UI Emoji" font-size="28px" fill="#364fc7" text-anchor="start" style="white-space: pre;" direction="ltr">Player 3 (FK)</text></g><g stroke-linecap="round" transform="translate(2137.6921933778913 189.24872106045996) rotate(0 127.59682066400842 151.78510443525562)"><path d="M32 0 M32 0 C82.63 -2.39, 135.45 0.22, 223.19 0 M32 0 C82.24 1.01, 133.81 0.64, 223.19 0 M223.19 0 C244.2 1.18, 256.78 9.83, 255.19 32 M223.19 0 C244.74 -1, 254.33 9.11, 255.19 32 M255.19 32 C255.97 116.42, 254.97 202.95, 255.19 271.57 M255.19 32 C254.39 80.89, 254.14 128.29, 255.19 271.57 M255.19 271.57 C255.2 294.09, 246.07 301.81, 223.19 303.57 M255.19 271.57 C255.61 293.96, 243.95 305.65, 223.19 303.57 M223.19 303.57 C162.23 303.33, 99.51 306.27, 32 303.57 M223.19 303.57 C174.4 304.12, 125.8 304.12, 32 303.57 M32 303.57 C12.03 304.97, 1.72 294.35, 0 271.57 M32 303.57 C8.7 301.85, -1.5 292.78, 0 271.57 M0 271.57 C-1.08 213.96, -2.15 152.23, 0 32 M0 271.57 C-0.62 177.9, -0.36 84.55, 0 32 M0 32 C-0.09 10.81, 8.82 1.26, 32 0 M0 32 C-1.93 11.95, 10.56 -0.68, 32 0" stroke="#000000" stroke-width="1" fill="none"></path></g><g transform="translate(2169.4271723408056 213.21344949619106) rotate(0 23.5 9)"><text x="0" y="14" font-family="Helvetica, Segoe UI Emoji" font-size="16px" fill="#000000" text-anchor="start" style="white-space: pre;" direction="ltr">Player</text></g><g stroke-linecap="round"><g transform="translate(2058.690908527162 415.2116402688945) rotate(0 32.86979545210579 -42.29816195205433)"><path d="M0.95 0.2 C12.07 -13.63, 55.18 -69.13, 65.75 -83.03 M-0.01 -0.74 C11.12 -14.91, 54.71 -70.71, 65.27 -84.8" stroke="#000000" stroke-width="1" fill="none"></path></g><g transform="translate(2058.690908527162 415.2116402688945) rotate(0 32.86979545210579 -42.29816195205433)"><path d="M56.58 -54.69 C59.34 -63.25, 61.02 -67.06, 66.2 -86.24 M55.37 -56.94 C59.42 -64.65, 61.82 -71.7, 65.98 -84.9" stroke="#000000" stroke-width="1" fill="none"></path></g><g transform="translate(2058.690908527162 415.2116402688945) rotate(0 32.86979545210579 -42.29816195205433)"><path d="M40.3 -67.19 C46.61 -73.15, 51.84 -74.23, 66.2 -86.24 M39.09 -69.44 C47.84 -73.61, 54.83 -77.13, 65.98 -84.9" stroke="#000000" stroke-width="1" fill="none"></path></g></g><mask></mask><g transform="translate(2172.258339560238 296.9835078865202) rotate(0 63 16)"><text x="0" y="26" font-family="Helvetica, Segoe UI Emoji" font-size="28px" fill="#364fc7" text-anchor="start" style="white-space: pre;" direction="ltr">Nickname</text></g><g transform="translate(1786.2758753110097 543.5479489095577) rotate(0 83.5 16)"><text x="0" y="26" font-family="Helvetica, Segoe UI Emoji" font-size="28px" fill="#364fc7" text-anchor="start" style="white-space: pre;" direction="ltr">Player 4 (FK)</text></g><g transform="translate(2171.388634597405 339.4386799373932) rotate(0 30 16)"><text x="0" y="26" font-family="Helvetica, Segoe UI Emoji" font-size="28px" fill="#364fc7" text-anchor="start" style="white-space: pre;" direction="ltr">Host</text></g><g transform="translate(2171.604518808038 256.7735316262215) rotate(0 15 16)"><text x="0" y="26" font-family="Helvetica, Segoe UI Emoji" font-size="28px" fill="#364fc7" text-anchor="start" style="white-space: pre;" direction="ltr">ID</text></g><g transform="translate(828.6073488268494 978.9432249123137) rotate(0 66.5 16)"><text x="0" y="26" font-family="Helvetica, Segoe UI Emoji" font-size="28px" fill="#364fc7" text-anchor="start" style="white-space: pre;" direction="ltr">startGame</text></g><g transform="translate(1788.7061147106965 363.1612706257048) rotate(0 15 16)"><text x="0" y="26" font-family="Helvetica, Segoe UI Emoji" font-size="28px" fill="#364fc7" text-anchor="start" style="white-space: pre;" direction="ltr">ID</text></g><g transform="translate(2145.914297742822 862.4891135770725) rotate(0 83.5 16)"><text x="0" y="26" font-family="Helvetica, Segoe UI Emoji" font-size="28px" fill="#364fc7" text-anchor="start" style="white-space: pre;" direction="ltr">RoomID (FK)</text></g><g transform="translate(2170.2722048224227 381.1660137924197) rotate(0 37.5 16)"><text x="0" y="26" font-family="Helvetica, Segoe UI Emoji" font-size="28px" fill="#364fc7" text-anchor="start" style="white-space: pre;" direction="ltr">Score</text></g><g transform="translate(831.3089855199019 626.7127149653346) rotate(0 78 16)"><text x="0" y="26" font-family="Helvetica, Segoe UI Emoji" font-size="28px" fill="#364fc7" text-anchor="start" style="white-space: pre;" direction="ltr">createGame</text></g><g transform="translate(828.5826763456344 916.2134414229389) rotate(0 68.5 16)"><text x="0" y="26" font-family="Helvetica, Segoe UI Emoji" font-size="28px" fill="#364fc7" text-anchor="start" style="white-space: pre;" direction="ltr">nextRound</text></g><g transform="translate(828.5765082253304 867.6078368844215) rotate(0 24 9)"><text x="0" y="14" font-family="Helvetica, Segoe UI Emoji" font-size="16px" fill="#000000" text-anchor="start" style="white-space: pre;" direction="ltr">Logics</text></g><g stroke-linecap="round" transform="translate(2124.899511867865 635.0372797750744) rotate(0 143.2946868371116 173.35810519770314)"><path d="M32 0 M32 0 C79.03 2.48, 129.99 -0.62, 254.59 0 M32 0 C114.72 1.2, 198.51 -0.16, 254.59 0 M254.59 0 C276.99 -1.17, 287.79 11.65, 286.59 32 M254.59 0 C276.59 -0.22, 287.25 12.51, 286.59 32 M286.59 32 C283.75 126.32, 284.37 220.38, 286.59 314.72 M286.59 32 C284.99 114.82, 285.38 198.9, 286.59 314.72 M286.59 314.72 C288.38 336.61, 275.77 347.09, 254.59 346.72 M286.59 314.72 C287.12 334.08, 278.21 347.74, 254.59 346.72 M254.59 346.72 C165.46 345.77, 78.16 344.59, 32 346.72 M254.59 346.72 C185.08 348.11, 116.11 346.87, 32 346.72 M32 346.72 C11.26 347.82, 1.62 334.11, 0 314.72 M32 346.72 C10.22 346.6, -0.5 334.63, 0 314.72 M0 314.72 C2.62 219.7, 0.85 123.69, 0 32 M0 314.72 C-1.23 233.3, -1.88 151.31, 0 32 M0 32 C0.59 11.41, 8.93 -0.82, 32 0 M0 32 C-1.23 9.58, 12.89 1.61, 32 0" stroke="#000000" stroke-width="1" fill="none"></path></g><g transform="translate(2148.683783759216 664.8486217479937) rotate(0 24.5 9)"><text x="0" y="14" font-family="Helvetica, Segoe UI Emoji" font-size="16px" fill="#000000" text-anchor="start" style="white-space: pre;" direction="ltr">Round</text></g><g transform="translate(2147.10474496145 709.1866515470884) rotate(0 15 16)"><text x="0" y="26" font-family="Helvetica, Segoe UI Emoji" font-size="28px" fill="#364fc7" text-anchor="start" style="white-space: pre;" direction="ltr">ID</text></g><g transform="translate(2142.3676285681518 759.8454236019796) rotate(0 133.5 16)"><text x="0" y="26" font-family="Helvetica, Segoe UI Emoji" font-size="28px" fill="#364fc7" text-anchor="start" style="white-space: pre;" direction="ltr">Winning Players (FK)</text></g><g transform="translate(2144.9705753363437 809.825702423455) rotate(0 124 16)"><text x="0" y="26" font-family="Helvetica, Segoe UI Emoji" font-size="28px" fill="#364fc7" text-anchor="start" style="white-space: pre;" direction="ltr">Losing Players (FK)</text></g><g stroke-linecap="round"><g transform="translate(2258.167919151193 509.36182858569157) rotate(0 -0.5888856184236602 51.57912905891919)"><path d="M-0.01 0.34 C-0.11 17.58, 0.48 86.47, 0.26 103.68 M-1.47 -0.52 C-1.71 16.38, 0.02 85.08, -0.12 102.13" stroke="#000000" stroke-width="1" fill="none"></path></g><g transform="translate(2258.167919151193 509.36182858569157) rotate(0 -0.5888856184236602 51.57912905891919)"><path d="M-10.1 75.83 C-4.85 83.67, -1.08 96.08, 1.63 103.24 M-10.75 73.07 C-6.09 83.77, -4.06 94.06, 0.03 102.93" stroke="#000000" stroke-width="1" fill="none"></path></g><g transform="translate(2258.167919151193 509.36182858569157) rotate(0 -0.5888856184236602 51.57912905891919)"><path d="M10.42 75.62 C8.03 83.54, 4.17 96.03, 1.63 103.24 M9.77 72.86 C7.12 83.57, 1.84 93.94, 0.03 102.93" stroke="#000000" stroke-width="1" fill="none"></path></g></g><mask></mask><g stroke-linecap="round"><g transform="translate(2057.697841158254 646.3804530137132) rotate(0 23.01398860929126 26.818520818514457)"><path d="M-0.62 -1.12 C7.19 7.99, 39.07 45.44, 46.65 54.76 M1.25 0.91 C9.03 9.69, 39.25 44.44, 46.33 53.11" stroke="#000000" stroke-width="1" fill="none"></path></g><g transform="translate(2057.697841158254 646.3804530137132) rotate(0 23.01398860929126 26.818520818514457)"><path d="M18.41 40.23 C29.17 41.56, 36.58 47.62, 44.97 54.08 M19.89 37.7 C30.62 44.41, 39.07 50.23, 47.18 53.24" stroke="#000000" stroke-width="1" fill="none"></path></g><g transform="translate(2057.697841158254 646.3804530137132) rotate(0 23.01398860929126 26.818520818514457)"><path d="M34.06 26.96 C40.4 31.97, 43.37 41.79, 44.97 54.08 M35.54 24.43 C40.28 36.23, 42.78 47.09, 47.18 53.24" stroke="#000000" stroke-width="1" fill="none"></path></g></g><mask></mask><g transform="translate(828.5148270222928 694.6977369535247) rotate(0 96.5 16)"><text x="0" y="26" font-family="Helvetica, Segoe UI Emoji" font-size="28px" fill="#364fc7" text-anchor="start" style="white-space: pre;" direction="ltr">roundSummary</text></g><g transform="translate(832.3513978512397 759.7282293162076) rotate(0 96 16)"><text x="0" y="26" font-family="Helvetica, Segoe UI Emoji" font-size="28px" fill="#364fc7" text-anchor="start" style="white-space: pre;" direction="ltr">gameSummary</text></g></svg>